<?xml version="1.0" encoding="UTF-8"?>
<svg
  width="1024"
  height="1024"
  viewBox="0 0 1024 1024"
  version="1.1"
  xmlns="http://www.w3.org/2000/svg"
  aria-labelledby="title"
  aria-describedby="desc"
>
  <title id="title">Vector Portrait</title>
  <desc id="desc">
    A stylized vector portrait of a man with dark hair and a mustache, created
    from a photograph.
  </desc>

  <!-- Background Fill -->
  <rect width="1024" height="1024" fill="#000000" />

  <g id="portrait" transform="translate(12, 12) scale(0.97)">
    <!-- Skin Tone Layers -->
    <path
      id="skin-base"
      fill="#c89f83"
      d="M500 100C350 100 250 250 250 450C250 650 300 850 500 900C700 850 750 650 750 450C750 250 650 100 500 100Z M498 845C498 845 400 800 350 700C300 600 300 450 300 450C300 300 380 200 500 200C620 200 700 300 700 450C700 450 700 600 650 700C600 800 502 845 502 845Z"
    />
    <path
      id="skin-shadow-deep"
      fill="#7a5948"
      d="M300 450C300 600 300 700 350 750C360 730 365 680 360 630C355 580 340 500 340 450C340 400 350 350 370 310C350 330 300 380 300 450Z M630 310C650 350 660 400 660 450C660 500 645 580 640 630C635 680 640 730 650 750C700 700 700 600 700 450C700 380 650 330 630 310Z M500 840C550 820 590 780 620 720C610 730 580 750 550 750C520 750 490 730 480 720C410 780 450 820 500 840Z"
    />
    <path
      id="skin-shadow-mid"
      fill="#a57e67"
      d="M370 310C380 280 410 240 450 220C430 250 400 300 380 350C375 340 370 325 370 310Z M630 310C625 325 620 340 615 350C600 300 570 250 550 220C590 240 620 280 630 310Z M480 720C490 730 520 750 550 750C580 750 610 730 620 720C615 700 600 650 590 600C580 550 570 500 570 480C570 460 560 440 540 430C520 420 500 425 500 425C500 425 480 420 460 430C440 440 430 460 430 480C430 500 420 550 410 600C400 650 385 700 380 720C410 700 450 700 480 720Z"
    />
    <path
      id="skin-highlight"
      fill="#e0b99e"
      d="M500 200C530 200 560 210 580 230C570 240 550 260 530 280C510 300 500 330 500 360C500 330 490 300 470 280C450 260 430 240 420 230C440 210 470 200 500 200Z M460 430C480 420 520 420 540 430C550 435 555 445 555 455C555 465 550 475 540 480C520 500 480 500 460 480C450 475 445 465 445 455C445 445 450 435 460 430Z"
    />

    <!-- Eyes -->
    <g id="eyes">
      <path id="eye-whites" fill="#f0f0f0" d="M400 480 Q 425 470 450 480 Q 425 490 400 480Z M550 480 Q 575 470 600 480 Q 575 490 550 480Z" />
      <path id="eye-irises" fill="#4a342a" d="M415 480 A 10 10 0 0 1 435 480 A 10 10 0 0 1 415 480Z M565 480 A 10 10 0 0 1 585 480 A 10 10 0 0 1 565 480Z" />
      <path id="eye-pupils" fill="#1a1a1a" d="M420 480 A 5 5 0 0 1 430 480 A 5 5 0 0 1 420 480Z M570 480 A 5 5 0 0 1 580 480 A 5 5 0 0 1 570 480Z" />
      <path id="eye-highlight" fill="#ffffff" d="M428 476 A 2 2 0 0 1 432 476 A 2 2 0 0 1 428 476Z M578 476 A 2 2 0 0 1 582 476 A 2 2 0 0 1 578 476Z" />
    </g>

    <!-- Eyebrows -->
    <path
      id="eyebrows"
      fill="#3d2c22"
      d="M380 450 Q 420 430 450 440 Q 420 445 380 450Z M550 440 Q 580 430 620 450 Q 580 445 550 440Z"
    />

    <!-- Nose -->
    <path
      id="nose-shadow"
      fill="#7a5948"
      d="M500 500 C 480 520 480 560 500 580 C 520 560 520 520 500 500Z M485 570 L 515 570 L 500 600 Z"
    />
    <path
      id="nose-bridge"
      fill="#a57e67"
      d="M500 430 L 510 500 L 490 500 Z"
    />

    <!-- Mouth -->
    <g id="mouth">
      <path id="mouth-line" fill="#4a342a" d="M460 680 Q 500 700 540 680 Q 500 690 460 680Z" />
      <path id="upper-lip" fill="#a57e67" d="M460 680 Q 500 670 540 680 Q 500 690 460 680Z" />
      <path id="lower-lip" fill="#c89f83" d="M465 685 Q 500 710 535 685 Q 500 695 465 685Z" />
      <path id="teeth" fill="#f0f0e0" d="M465 682 Q 500 688 535 682 L 530 680 L 470 680 Z" />
    </g>

    <!-- Mustache -->
    <path
      id="mustache"
      fill="#3d2c22"
      d="M420 620 C 450 640 450 670 440 680 C 460 660 500 650 540 660 C 560 670 550 640 580 620 C 550 610 500 615 450 610 C 440 612 430 615 420 620Z"
    />

    <!-- Hair -->
    <path
      id="hair"
      fill="#3d2c22"
      d="M500 100 C 350 100 250 250 250 450 C 260 400 280 300 350 220 C 420 150 450 120 500 120 C 550 120 580 150 650 220 C 720 300 740 400 750 450 C 750 250 650 100 500 100Z"
    />
    <path
      id="hair-details"
      fill="#2a1e17"
      d="M350 220 C 380 250 400 300 400 350 C 410 300 430 250 460 220 C 430 200 380 180 350 220Z M650 220 C 620 180 570 200 540 220 C 570 250 590 300 600 350 C 600 300 620 250 650 220Z M500 120 C 480 140 470 180 480 210 C 490 180 500 150 500 120Z M500 120 C 520 140 530 180 520 210 C 510 180 500 150 500 120Z"
    />
  </g>
</svg>
